# xmcd
#
# Track frame offsets:
#	150
#	14758
#	33737
#	42044
#	61262
#	77439
#	92159
#	113538
#	126295
#	140966
#	157161
#	176060
#	199688
#	220403
#	244249
#	257958
#	270493
#	287027
#	300052
#
# Disc length: 4363 seconds
#
# Revision: 0
# Processed by: cddbd v1.5.1PL2 Copyright (c) Steve Scherf et al.
# Submitted via: dBpowerAMP V4.0
#
DISCID=16110913
DTITLE=Al Traynor - All Mine (Disk 1)
DYEAR=2005
DGENRE=Country
TTITLE0=Brother Ira's Choir (my version)
TTITLE1=Deck of Cards (my revised version)
TTITLE2=The Ghost Train From Buchin's
TTITLE3=Dust on the Saddle
TTITLE4=A Forgotten Disaster
TTITLE5=Daddy Can We Talk
TTITLE6="Smiley" As I Knew Him
TTITLE7=Barnyard Boogie
TTITLE8=The Untold Story of Flight '93
TTITLE9=Roses Shadow
TTITLE10=Our Mother
TTITLE11=The Little Girls Light
TTITLE12=The Man in the Picture
TTITLE13=An Angel Walks The Highway
TTITLE14=He Died For You and Me
TTITLE15=Mamma Sleeps With The Roses
TTITLE16=A Little Boys Eyes
TTITLE17=Live For Today
TTITLE18=Yellow Roses Say Good-bye
EXTD=
EXTT0=
EXTT1=
EXTT2=
EXTT3=
EXTT4=
EXTT5=
EXTT6=
EXTT7=
EXTT8=
EXTT9=
EXTT10=
EXTT11=
EXTT12=
EXTT13=
EXTT14=
EXTT15=
EXTT16=
EXTT17=
EXTT18=
PLAYORDER=
